<?xml version="1.0" encoding="UTF-8" standalone="no"?>
<!DOCTYPE svg PUBLIC "-//W3C//DTD SVG 1.1//EN"
 "http://www.w3.org/Graphics/SVG/1.1/DTD/svg11.dtd">
<!-- Generated by graphviz version 2.49.2 (20211016.1639)
 -->
<!-- Title: output Pages: 1 -->
<svg width="339pt" height="188pt"
 viewBox="0.00 0.00 339.09 188.00" xmlns="http://www.w3.org/2000/svg" xmlns:xlink="http://www.w3.org/1999/xlink">
<g id="graph0" class="graph" transform="scale(1 1) rotate(0) translate(4 184)">
<title>output</title>
<polygon fill="white" stroke="transparent" points="-4,4 -4,-184 335.09,-184 335.09,4 -4,4"/>
<!-- linked -->
<g id="node1" class="node">
<title>linked</title>
<ellipse fill="none" stroke="black" cx="165.54" cy="-162" rx="33.29" ry="18"/>
<text text-anchor="middle" x="165.54" y="-158.3" font-family="Times,serif" font-size="14.00">linked</text>
</g>
<!-- key1 -->
<g id="node2" class="node">
<title>key1</title>
<ellipse fill="none" stroke="black" cx="73.54" cy="-90" rx="28.7" ry="18"/>
<text text-anchor="middle" x="73.54" y="-86.3" font-family="Times,serif" font-size="14.00">key1</text>
</g>
<!-- linked&#45;&gt;key1 -->
<g id="edge1" class="edge">
<title>linked&#45;&gt;key1</title>
<path fill="none" stroke="black" d="M146.93,-146.83C133.19,-136.39 114.34,-122.04 99.18,-110.51"/>
<polygon fill="black" stroke="black" points="101.28,-107.7 91.2,-104.43 97.04,-113.27 101.28,-107.7"/>
</g>
<!-- key2 -->
<g id="node4" class="node">
<title>key2</title>
<ellipse fill="none" stroke="black" cx="165.54" cy="-90" rx="28.7" ry="18"/>
<text text-anchor="middle" x="165.54" y="-86.3" font-family="Times,serif" font-size="14.00">key2</text>
</g>
<!-- linked&#45;&gt;key2 -->
<g id="edge3" class="edge">
<title>linked&#45;&gt;key2</title>
<path fill="none" stroke="black" d="M165.54,-143.7C165.54,-135.98 165.54,-126.71 165.54,-118.11"/>
<polygon fill="black" stroke="black" points="169.05,-118.1 165.54,-108.1 162.05,-118.1 169.05,-118.1"/>
</g>
<!-- key3 -->
<g id="node6" class="node">
<title>key3</title>
<ellipse fill="none" stroke="black" cx="257.54" cy="-90" rx="28.7" ry="18"/>
<text text-anchor="middle" x="257.54" y="-86.3" font-family="Times,serif" font-size="14.00">key3</text>
</g>
<!-- linked&#45;&gt;key3 -->
<g id="edge5" class="edge">
<title>linked&#45;&gt;key3</title>
<path fill="none" stroke="black" d="M184.16,-146.83C197.9,-136.39 216.75,-122.04 231.91,-110.51"/>
<polygon fill="black" stroke="black" points="234.05,-113.27 239.89,-104.43 229.81,-107.7 234.05,-113.27"/>
</g>
<!-- [key1, key3] -->
<g id="node3" class="node">
<title>[key1, key3]</title>
<ellipse fill="none" stroke="black" cx="56.54" cy="-18" rx="56.59" ry="18"/>
<text text-anchor="middle" x="56.54" y="-14.3" font-family="Times,serif" font-size="14.00">[key1, key3]</text>
</g>
<!-- key1&#45;&gt;[key1, key3] -->
<g id="edge2" class="edge">
<title>key1&#45;&gt;[key1, key3]</title>
<path fill="none" stroke="black" d="M69.43,-72.05C67.54,-64.26 65.24,-54.82 63.12,-46.08"/>
<polygon fill="black" stroke="black" points="66.5,-45.17 60.74,-36.28 59.7,-46.82 66.5,-45.17"/>
</g>
<!-- [key3] -->
<g id="node5" class="node">
<title>[key3]</title>
<ellipse fill="none" stroke="black" cx="165.54" cy="-18" rx="34.39" ry="18"/>
<text text-anchor="middle" x="165.54" y="-14.3" font-family="Times,serif" font-size="14.00">[key3]</text>
</g>
<!-- key2&#45;&gt;[key3] -->
<g id="edge4" class="edge">
<title>key2&#45;&gt;[key3]</title>
<path fill="none" stroke="black" d="M165.54,-71.7C165.54,-63.98 165.54,-54.71 165.54,-46.11"/>
<polygon fill="black" stroke="black" points="169.05,-46.1 165.54,-36.1 162.05,-46.1 169.05,-46.1"/>
</g>
<!-- [key1, key2] -->
<g id="node7" class="node">
<title>[key1, key2]</title>
<ellipse fill="none" stroke="black" cx="274.54" cy="-18" rx="56.59" ry="18"/>
<text text-anchor="middle" x="274.54" y="-14.3" font-family="Times,serif" font-size="14.00">[key1, key2]</text>
</g>
<!-- key3&#45;&gt;[key1, key2] -->
<g id="edge6" class="edge">
<title>key3&#45;&gt;[key1, key2]</title>
<path fill="none" stroke="black" d="M261.66,-72.05C263.55,-64.26 265.85,-54.82 267.97,-46.08"/>
<polygon fill="black" stroke="black" points="271.39,-46.82 270.35,-36.28 264.59,-45.17 271.39,-46.82"/>
</g>
</g>
</svg>
