<?xml version="1.0" encoding="UTF-8" standalone="no"?>
<!DOCTYPE svg PUBLIC "-//W3C//DTD SVG 1.1//EN"
 "http://www.w3.org/Graphics/SVG/1.1/DTD/svg11.dtd">
<!-- Generated by graphviz version 2.42.3 (20191010.1750)
 -->
<!-- Title: combined Pages: 1 -->
<svg width="227pt" height="188pt"
 viewBox="0.00 0.00 226.98 188.00" xmlns="http://www.w3.org/2000/svg" xmlns:xlink="http://www.w3.org/1999/xlink">
<g id="graph0" class="graph" transform="scale(1 1) rotate(0) translate(4 184)">
<title>combined</title>
<polygon fill="white" stroke="transparent" points="-4,4 -4,-184 222.98,-184 222.98,4 -4,4"/>
<!-- combined -->
<g id="node1" class="node">
<title>combined</title>
<ellipse fill="none" stroke="black" cx="109.49" cy="-162" rx="44.96" ry="18"/>
<text text-anchor="middle" x="109.49" y="-157.8" font-family="Times,serif" font-size="14.00">combined</text>
</g>
<!-- key1 -->
<g id="node2" class="node">
<title>key1</title>
<ellipse fill="none" stroke="black" cx="109.49" cy="-90" rx="27.1" ry="18"/>
<text text-anchor="middle" x="109.49" y="-85.8" font-family="Times,serif" font-size="14.00">key1</text>
</g>
<!-- combined&#45;&gt;key1 -->
<g id="edge1" class="edge">
<title>combined&#45;&gt;key1</title>
<path fill="none" stroke="black" d="M109.49,-143.7C109.49,-135.98 109.49,-126.71 109.49,-118.11"/>
<polygon fill="black" stroke="black" points="112.99,-118.1 109.49,-108.1 105.99,-118.1 112.99,-118.1"/>
</g>
<!-- {u1, u2, .., uN, t1, t2, .., tN} -->
<g id="node3" class="node">
<title>{u1, u2, .., uN, t1, t2, .., tN}</title>
<ellipse fill="none" stroke="black" cx="109.49" cy="-18" rx="109.48" ry="18"/>
<text text-anchor="middle" x="109.49" y="-13.8" font-family="Times,serif" font-size="14.00">{u1, u2, .., uN, t1, t2, .., tN}</text>
</g>
<!-- key1&#45;&gt;{u1, u2, .., uN, t1, t2, .., tN} -->
<g id="edge2" class="edge">
<title>key1&#45;&gt;{u1, u2, .., uN, t1, t2, .., tN}</title>
<path fill="none" stroke="black" d="M109.49,-71.7C109.49,-63.98 109.49,-54.71 109.49,-46.11"/>
<polygon fill="black" stroke="black" points="112.99,-46.1 109.49,-36.1 105.99,-46.1 112.99,-46.1"/>
</g>
</g>
</svg>
