<?xml version="1.0" encoding="UTF-8" standalone="no"?>
<!DOCTYPE svg PUBLIC "-//W3C//DTD SVG 1.1//EN"
 "http://www.w3.org/Graphics/SVG/1.1/DTD/svg11.dtd">
<!-- Generated by graphviz version 2.49.2 (20211016.1639)
 -->
<!-- Title: input Pages: 1 -->
<svg width="281pt" height="188pt"
 viewBox="0.00 0.00 281.29 188.00" xmlns="http://www.w3.org/2000/svg" xmlns:xlink="http://www.w3.org/1999/xlink">
<g id="graph0" class="graph" transform="scale(1 1) rotate(0) translate(4 184)">
<title>input</title>
<polygon fill="white" stroke="transparent" points="-4,4 -4,-184 277.29,-184 277.29,4 -4,4"/>
<!-- id_map -->
<g id="node1" class="node">
<title>id_map</title>
<ellipse fill="none" stroke="black" cx="136.65" cy="-162" rx="37.89" ry="18"/>
<text text-anchor="middle" x="136.65" y="-158.3" font-family="Times,serif" font-size="14.00">id_map</text>
</g>
<!-- key1 -->
<g id="node2" class="node">
<title>key1</title>
<ellipse fill="none" stroke="black" cx="50.65" cy="-90" rx="28.7" ry="18"/>
<text text-anchor="middle" x="50.65" y="-86.3" font-family="Times,serif" font-size="14.00">key1</text>
</g>
<!-- id_map&#45;&gt;key1 -->
<g id="edge1" class="edge">
<title>id_map&#45;&gt;key1</title>
<path fill="none" stroke="black" d="M118.41,-146.15C105.91,-135.98 89.19,-122.37 75.48,-111.21"/>
<polygon fill="black" stroke="black" points="77.37,-108.24 67.4,-104.64 72.95,-113.66 77.37,-108.24"/>
</g>
<!-- key2 -->
<g id="node4" class="node">
<title>key2</title>
<ellipse fill="none" stroke="black" cx="136.65" cy="-90" rx="28.7" ry="18"/>
<text text-anchor="middle" x="136.65" y="-86.3" font-family="Times,serif" font-size="14.00">key2</text>
</g>
<!-- id_map&#45;&gt;key2 -->
<g id="edge3" class="edge">
<title>id_map&#45;&gt;key2</title>
<path fill="none" stroke="black" d="M136.65,-143.7C136.65,-135.98 136.65,-126.71 136.65,-118.11"/>
<polygon fill="black" stroke="black" points="140.15,-118.1 136.65,-108.1 133.15,-118.1 140.15,-118.1"/>
</g>
<!-- key3 -->
<g id="node6" class="node">
<title>key3</title>
<ellipse fill="none" stroke="black" cx="222.65" cy="-90" rx="28.7" ry="18"/>
<text text-anchor="middle" x="222.65" y="-86.3" font-family="Times,serif" font-size="14.00">key3</text>
</g>
<!-- id_map&#45;&gt;key3 -->
<g id="edge5" class="edge">
<title>id_map&#45;&gt;key3</title>
<path fill="none" stroke="black" d="M154.88,-146.15C167.38,-135.98 184.1,-122.37 197.81,-111.21"/>
<polygon fill="black" stroke="black" points="200.35,-113.66 205.89,-104.64 195.93,-108.24 200.35,-113.66"/>
</g>
<!-- [v1, v2] -->
<g id="node3" class="node">
<title>[v1, v2]</title>
<ellipse fill="none" stroke="black" cx="39.65" cy="-18" rx="39.79" ry="18"/>
<text text-anchor="middle" x="39.65" y="-14.3" font-family="Times,serif" font-size="14.00">[v1, v2]</text>
</g>
<!-- key1&#45;&gt;[v1, v2] -->
<g id="edge2" class="edge">
<title>key1&#45;&gt;[v1, v2]</title>
<path fill="none" stroke="black" d="M47.98,-72.05C46.77,-64.35 45.31,-55.03 43.95,-46.36"/>
<polygon fill="black" stroke="black" points="47.37,-45.61 42.36,-36.28 40.46,-46.7 47.37,-45.61"/>
</g>
<!-- [v3, v4] -->
<g id="node5" class="node">
<title>[v3, v4]</title>
<ellipse fill="none" stroke="black" cx="136.65" cy="-18" rx="39.79" ry="18"/>
<text text-anchor="middle" x="136.65" y="-14.3" font-family="Times,serif" font-size="14.00">[v3, v4]</text>
</g>
<!-- key2&#45;&gt;[v3, v4] -->
<g id="edge4" class="edge">
<title>key2&#45;&gt;[v3, v4]</title>
<path fill="none" stroke="black" d="M136.65,-71.7C136.65,-63.98 136.65,-54.71 136.65,-46.11"/>
<polygon fill="black" stroke="black" points="140.15,-46.1 136.65,-36.1 133.15,-46.1 140.15,-46.1"/>
</g>
<!-- [v2, v4] -->
<g id="node7" class="node">
<title>[v2, v4]</title>
<ellipse fill="none" stroke="black" cx="233.65" cy="-18" rx="39.79" ry="18"/>
<text text-anchor="middle" x="233.65" y="-14.3" font-family="Times,serif" font-size="14.00">[v2, v4]</text>
</g>
<!-- key3&#45;&gt;[v2, v4] -->
<g id="edge6" class="edge">
<title>key3&#45;&gt;[v2, v4]</title>
<path fill="none" stroke="black" d="M225.31,-72.05C226.52,-64.35 227.99,-55.03 229.35,-46.36"/>
<polygon fill="black" stroke="black" points="232.84,-46.7 230.93,-36.28 225.92,-45.61 232.84,-46.7"/>
</g>
</g>
</svg>
