<?xml version="1.0" encoding="UTF-8" standalone="no"?>
<!DOCTYPE svg PUBLIC "-//W3C//DTD SVG 1.1//EN"
 "http://www.w3.org/Graphics/SVG/1.1/DTD/svg11.dtd">
<!-- Generated by graphviz version 2.42.3 (20191010.1750)
 -->
<!-- Title: input Pages: 1 -->
<svg width="272pt" height="188pt"
 viewBox="0.00 0.00 272.21 188.00" xmlns="http://www.w3.org/2000/svg" xmlns:xlink="http://www.w3.org/1999/xlink">
<g id="graph0" class="graph" transform="scale(1 1) rotate(0) translate(4 184)">
<title>input</title>
<polygon fill="white" stroke="transparent" points="-4,4 -4,-184 268.21,-184 268.21,4 -4,4"/>
<!-- id_map -->
<g id="node1" class="node">
<title>id_map</title>
<ellipse fill="none" stroke="black" cx="132.11" cy="-162" rx="36.77" ry="18"/>
<text text-anchor="middle" x="132.11" y="-157.8" font-family="Times,serif" font-size="14.00">id_map</text>
</g>
<!-- key1 -->
<g id="node2" class="node">
<title>key1</title>
<ellipse fill="none" stroke="black" cx="49.11" cy="-90" rx="27.1" ry="18"/>
<text text-anchor="middle" x="49.11" y="-85.8" font-family="Times,serif" font-size="14.00">key1</text>
</g>
<!-- id_map&#45;&gt;key1 -->
<g id="edge1" class="edge">
<title>id_map&#45;&gt;key1</title>
<path fill="none" stroke="black" d="M114.5,-146.15C102.44,-135.98 86.3,-122.37 73.07,-111.21"/>
<polygon fill="black" stroke="black" points="75.18,-108.41 65.27,-104.64 70.66,-113.76 75.18,-108.41"/>
</g>
<!-- key2 -->
<g id="node4" class="node">
<title>key2</title>
<ellipse fill="none" stroke="black" cx="132.11" cy="-90" rx="27.1" ry="18"/>
<text text-anchor="middle" x="132.11" y="-85.8" font-family="Times,serif" font-size="14.00">key2</text>
</g>
<!-- id_map&#45;&gt;key2 -->
<g id="edge3" class="edge">
<title>id_map&#45;&gt;key2</title>
<path fill="none" stroke="black" d="M132.11,-143.7C132.11,-135.98 132.11,-126.71 132.11,-118.11"/>
<polygon fill="black" stroke="black" points="135.61,-118.1 132.11,-108.1 128.61,-118.1 135.61,-118.1"/>
</g>
<!-- key3 -->
<g id="node6" class="node">
<title>key3</title>
<ellipse fill="none" stroke="black" cx="215.11" cy="-90" rx="27.1" ry="18"/>
<text text-anchor="middle" x="215.11" y="-85.8" font-family="Times,serif" font-size="14.00">key3</text>
</g>
<!-- id_map&#45;&gt;key3 -->
<g id="edge5" class="edge">
<title>id_map&#45;&gt;key3</title>
<path fill="none" stroke="black" d="M149.71,-146.15C161.77,-135.98 177.91,-122.37 191.14,-111.21"/>
<polygon fill="black" stroke="black" points="193.55,-113.76 198.94,-104.64 189.04,-108.41 193.55,-113.76"/>
</g>
<!-- [v1, v2] -->
<g id="node3" class="node">
<title>[v1, v2]</title>
<ellipse fill="none" stroke="black" cx="38.11" cy="-18" rx="38.21" ry="18"/>
<text text-anchor="middle" x="38.11" y="-13.8" font-family="Times,serif" font-size="14.00">[v1, v2]</text>
</g>
<!-- key1&#45;&gt;[v1, v2] -->
<g id="edge2" class="edge">
<title>key1&#45;&gt;[v1, v2]</title>
<path fill="none" stroke="black" d="M46.44,-72.05C45.23,-64.35 43.77,-55.03 42.41,-46.36"/>
<polygon fill="black" stroke="black" points="45.83,-45.61 40.82,-36.28 38.91,-46.7 45.83,-45.61"/>
</g>
<!-- [v3, v4] -->
<g id="node5" class="node">
<title>[v3, v4]</title>
<ellipse fill="none" stroke="black" cx="132.11" cy="-18" rx="38.21" ry="18"/>
<text text-anchor="middle" x="132.11" y="-13.8" font-family="Times,serif" font-size="14.00">[v3, v4]</text>
</g>
<!-- key2&#45;&gt;[v3, v4] -->
<g id="edge4" class="edge">
<title>key2&#45;&gt;[v3, v4]</title>
<path fill="none" stroke="black" d="M132.11,-71.7C132.11,-63.98 132.11,-54.71 132.11,-46.11"/>
<polygon fill="black" stroke="black" points="135.61,-46.1 132.11,-36.1 128.61,-46.1 135.61,-46.1"/>
</g>
<!-- [v2, v4] -->
<g id="node7" class="node">
<title>[v2, v4]</title>
<ellipse fill="none" stroke="black" cx="226.11" cy="-18" rx="38.21" ry="18"/>
<text text-anchor="middle" x="226.11" y="-13.8" font-family="Times,serif" font-size="14.00">[v2, v4]</text>
</g>
<!-- key3&#45;&gt;[v2, v4] -->
<g id="edge6" class="edge">
<title>key3&#45;&gt;[v2, v4]</title>
<path fill="none" stroke="black" d="M217.77,-72.05C218.98,-64.35 220.44,-55.03 221.81,-46.36"/>
<polygon fill="black" stroke="black" points="225.3,-46.7 223.39,-36.28 218.38,-45.61 225.3,-46.7"/>
</g>
</g>
</svg>
