<?xml version="1.0" encoding="UTF-8" standalone="no"?>
<!DOCTYPE svg PUBLIC "-//W3C//DTD SVG 1.1//EN"
 "http://www.w3.org/Graphics/SVG/1.1/DTD/svg11.dtd">
<!-- Generated by graphviz version 2.42.3 (20191010.1750)
 -->
<!-- Title: keydict Pages: 1 -->
<svg width="132pt" height="188pt"
 viewBox="0.00 0.00 132.36 188.00" xmlns="http://www.w3.org/2000/svg" xmlns:xlink="http://www.w3.org/1999/xlink">
<g id="graph0" class="graph" transform="scale(1 1) rotate(0) translate(4 184)">
<title>keydict</title>
<polygon fill="white" stroke="transparent" points="-4,4 -4,-184 128.36,-184 128.36,4 -4,4"/>
<!-- keydict -->
<g id="node1" class="node">
<title>keydict</title>
<ellipse fill="none" stroke="black" cx="62.18" cy="-162" rx="36.27" ry="18"/>
<text text-anchor="middle" x="62.18" y="-157.8" font-family="Times,serif" font-size="14.00">keydict</text>
</g>
<!-- key1 -->
<g id="node2" class="node">
<title>key1</title>
<ellipse fill="none" stroke="black" cx="62.18" cy="-90" rx="27.1" ry="18"/>
<text text-anchor="middle" x="62.18" y="-85.8" font-family="Times,serif" font-size="14.00">key1</text>
</g>
<!-- keydict&#45;&gt;key1 -->
<g id="edge1" class="edge">
<title>keydict&#45;&gt;key1</title>
<path fill="none" stroke="black" d="M62.18,-143.7C62.18,-135.98 62.18,-126.71 62.18,-118.11"/>
<polygon fill="black" stroke="black" points="65.68,-118.1 62.18,-108.1 58.68,-118.1 65.68,-118.1"/>
</g>
<!-- [v1, v2, .., vN] -->
<g id="node3" class="node">
<title>[v1, v2, .., vN]</title>
<ellipse fill="none" stroke="black" cx="62.18" cy="-18" rx="62.36" ry="18"/>
<text text-anchor="middle" x="62.18" y="-13.8" font-family="Times,serif" font-size="14.00">[v1, v2, .., vN]</text>
</g>
<!-- key1&#45;&gt;[v1, v2, .., vN] -->
<g id="edge2" class="edge">
<title>key1&#45;&gt;[v1, v2, .., vN]</title>
<path fill="none" stroke="black" d="M62.18,-71.7C62.18,-63.98 62.18,-54.71 62.18,-46.11"/>
<polygon fill="black" stroke="black" points="65.68,-46.1 62.18,-36.1 58.68,-46.1 65.68,-46.1"/>
</g>
</g>
</svg>
