<?xml version="1.0" encoding="UTF-8" standalone="no"?>
<!DOCTYPE svg PUBLIC "-//W3C//DTD SVG 1.1//EN"
 "http://www.w3.org/Graphics/SVG/1.1/DTD/svg11.dtd">
<!-- Generated by graphviz version 2.42.3 (20191010.1750)
 -->
<!-- Title: valuedict Pages: 1 -->
<svg width="262pt" height="188pt"
 viewBox="0.00 0.00 262.46 188.00" xmlns="http://www.w3.org/2000/svg" xmlns:xlink="http://www.w3.org/1999/xlink">
<g id="graph0" class="graph" transform="scale(1 1) rotate(0) translate(4 184)">
<title>valuedict</title>
<polygon fill="white" stroke="transparent" points="-4,4 -4,-184 258.46,-184 258.46,4 -4,4"/>
<!-- valuedict -->
<g id="node1" class="node">
<title>valuedict</title>
<ellipse fill="none" stroke="black" cx="130.18" cy="-162" rx="42.54" ry="18"/>
<text text-anchor="middle" x="130.18" y="-157.8" font-family="Times,serif" font-size="14.00">valuedict</text>
</g>
<!-- v1 -->
<g id="node2" class="node">
<title>v1</title>
<ellipse fill="none" stroke="black" cx="78.18" cy="-90" rx="27" ry="18"/>
<text text-anchor="middle" x="78.18" y="-85.8" font-family="Times,serif" font-size="14.00">v1</text>
</g>
<!-- valuedict&#45;&gt;v1 -->
<g id="edge1" class="edge">
<title>valuedict&#45;&gt;v1</title>
<path fill="none" stroke="black" d="M117.86,-144.41C111.26,-135.53 103.02,-124.44 95.76,-114.67"/>
<polygon fill="black" stroke="black" points="98.47,-112.45 89.7,-106.51 92.85,-116.63 98.47,-112.45"/>
</g>
<!-- v2 -->
<g id="node4" class="node">
<title>v2</title>
<ellipse fill="none" stroke="black" cx="182.18" cy="-90" rx="27" ry="18"/>
<text text-anchor="middle" x="182.18" y="-85.8" font-family="Times,serif" font-size="14.00">v2</text>
</g>
<!-- valuedict&#45;&gt;v2 -->
<g id="edge3" class="edge">
<title>valuedict&#45;&gt;v2</title>
<path fill="none" stroke="black" d="M142.5,-144.41C149.1,-135.53 157.34,-124.44 164.6,-114.67"/>
<polygon fill="black" stroke="black" points="167.5,-116.63 170.66,-106.51 161.88,-112.45 167.5,-116.63"/>
</g>
<!-- [u1, u2, .., uN] -->
<g id="node3" class="node">
<title>[u1, u2, .., uN]</title>
<ellipse fill="none" stroke="black" cx="62.18" cy="-18" rx="62.36" ry="18"/>
<text text-anchor="middle" x="62.18" y="-13.8" font-family="Times,serif" font-size="14.00">[u1, u2, .., uN]</text>
</g>
<!-- v1&#45;&gt;[u1, u2, .., uN] -->
<g id="edge2" class="edge">
<title>v1&#45;&gt;[u1, u2, .., uN]</title>
<path fill="none" stroke="black" d="M74.31,-72.05C72.52,-64.26 70.37,-54.82 68.37,-46.08"/>
<polygon fill="black" stroke="black" points="71.77,-45.24 66.13,-36.28 64.94,-46.8 71.77,-45.24"/>
</g>
<!-- [t1, t2, .., tN] -->
<g id="node5" class="node">
<title>[t1, t2, .., tN]</title>
<ellipse fill="none" stroke="black" cx="198.18" cy="-18" rx="56.07" ry="18"/>
<text text-anchor="middle" x="198.18" y="-13.8" font-family="Times,serif" font-size="14.00">[t1, t2, .., tN]</text>
</g>
<!-- v2&#45;&gt;[t1, t2, .., tN] -->
<g id="edge4" class="edge">
<title>v2&#45;&gt;[t1, t2, .., tN]</title>
<path fill="none" stroke="black" d="M186.05,-72.05C187.83,-64.26 189.99,-54.82 191.99,-46.08"/>
<polygon fill="black" stroke="black" points="195.41,-46.8 194.23,-36.28 188.59,-45.24 195.41,-46.8"/>
</g>
</g>
</svg>
