<?xml version="1.0" encoding="UTF-8" standalone="no"?>
<!DOCTYPE svg PUBLIC "-//W3C//DTD SVG 1.1//EN"
 "http://www.w3.org/Graphics/SVG/1.1/DTD/svg11.dtd">
<!-- Generated by graphviz version 2.44.1 (20200629.0846)
 -->
<!-- Title: combined Pages: 1 -->
<svg width="237pt" height="188pt"
 viewBox="0.00 0.00 236.78 188.00" xmlns="http://www.w3.org/2000/svg" xmlns:xlink="http://www.w3.org/1999/xlink">
<g id="graph0" class="graph" transform="scale(1 1) rotate(0) translate(4 184)">
<title>combined</title>
<polygon fill="white" stroke="transparent" points="-4,4 -4,-184 232.78,-184 232.78,4 -4,4"/>
<!-- combined -->
<g id="node1" class="node">
<title>combined</title>
<ellipse fill="none" stroke="black" cx="114.39" cy="-162" rx="46.29" ry="18"/>
<text text-anchor="middle" x="114.39" y="-158.3" font-family="Times,serif" font-size="14.00">combined</text>
</g>
<!-- key1 -->
<g id="node2" class="node">
<title>key1</title>
<ellipse fill="none" stroke="black" cx="114.39" cy="-90" rx="27.9" ry="18"/>
<text text-anchor="middle" x="114.39" y="-86.3" font-family="Times,serif" font-size="14.00">key1</text>
</g>
<!-- combined&#45;&gt;key1 -->
<g id="edge1" class="edge">
<title>combined&#45;&gt;key1</title>
<path fill="none" stroke="black" d="M114.39,-143.7C114.39,-135.98 114.39,-126.71 114.39,-118.11"/>
<polygon fill="black" stroke="black" points="117.89,-118.1 114.39,-108.1 110.89,-118.1 117.89,-118.1"/>
</g>
<!-- {u1, u2, .., uN, t1, t2, .., tN} -->
<g id="node3" class="node">
<title>{u1, u2, .., uN, t1, t2, .., tN}</title>
<ellipse fill="none" stroke="black" cx="114.39" cy="-18" rx="114.28" ry="18"/>
<text text-anchor="middle" x="114.39" y="-14.3" font-family="Times,serif" font-size="14.00">{u1, u2, .., uN, t1, t2, .., tN}</text>
</g>
<!-- key1&#45;&gt;{u1, u2, .., uN, t1, t2, .., tN} -->
<g id="edge2" class="edge">
<title>key1&#45;&gt;{u1, u2, .., uN, t1, t2, .., tN}</title>
<path fill="none" stroke="black" d="M114.39,-71.7C114.39,-63.98 114.39,-54.71 114.39,-46.11"/>
<polygon fill="black" stroke="black" points="117.89,-46.1 114.39,-36.1 110.89,-46.1 117.89,-46.1"/>
</g>
</g>
</svg>
