<?xml version="1.0" encoding="UTF-8" standalone="no"?>
<!DOCTYPE svg PUBLIC "-//W3C//DTD SVG 1.1//EN"
 "http://www.w3.org/Graphics/SVG/1.1/DTD/svg11.dtd">
<!-- Generated by graphviz version 2.44.1 (20200629.0846)
 -->
<!-- Title: output Pages: 1 -->
<svg width="336pt" height="188pt"
 viewBox="0.00 0.00 335.79 188.00" xmlns="http://www.w3.org/2000/svg" xmlns:xlink="http://www.w3.org/1999/xlink">
<g id="graph0" class="graph" transform="scale(1 1) rotate(0) translate(4 184)">
<title>output</title>
<polygon fill="white" stroke="transparent" points="-4,4 -4,-184 331.79,-184 331.79,4 -4,4"/>
<!-- linked -->
<g id="node1" class="node">
<title>linked</title>
<ellipse fill="none" stroke="black" cx="163.9" cy="-162" rx="32.49" ry="18"/>
<text text-anchor="middle" x="163.9" y="-158.3" font-family="Times,serif" font-size="14.00">linked</text>
</g>
<!-- key1 -->
<g id="node2" class="node">
<title>key1</title>
<ellipse fill="none" stroke="black" cx="72.9" cy="-90" rx="27.9" ry="18"/>
<text text-anchor="middle" x="72.9" y="-86.3" font-family="Times,serif" font-size="14.00">key1</text>
</g>
<!-- linked&#45;&gt;key1 -->
<g id="edge1" class="edge">
<title>linked&#45;&gt;key1</title>
<path fill="none" stroke="black" d="M145.48,-146.83C132.02,-136.48 113.59,-122.31 98.67,-110.83"/>
<polygon fill="black" stroke="black" points="100.42,-107.75 90.36,-104.43 96.15,-113.3 100.42,-107.75"/>
</g>
<!-- key2 -->
<g id="node4" class="node">
<title>key2</title>
<ellipse fill="none" stroke="black" cx="163.9" cy="-90" rx="27.9" ry="18"/>
<text text-anchor="middle" x="163.9" y="-86.3" font-family="Times,serif" font-size="14.00">key2</text>
</g>
<!-- linked&#45;&gt;key2 -->
<g id="edge3" class="edge">
<title>linked&#45;&gt;key2</title>
<path fill="none" stroke="black" d="M163.9,-143.7C163.9,-135.98 163.9,-126.71 163.9,-118.11"/>
<polygon fill="black" stroke="black" points="167.4,-118.1 163.9,-108.1 160.4,-118.1 167.4,-118.1"/>
</g>
<!-- key3 -->
<g id="node6" class="node">
<title>key3</title>
<ellipse fill="none" stroke="black" cx="254.9" cy="-90" rx="27.9" ry="18"/>
<text text-anchor="middle" x="254.9" y="-86.3" font-family="Times,serif" font-size="14.00">key3</text>
</g>
<!-- linked&#45;&gt;key3 -->
<g id="edge5" class="edge">
<title>linked&#45;&gt;key3</title>
<path fill="none" stroke="black" d="M182.31,-146.83C195.77,-136.48 214.2,-122.31 229.12,-110.83"/>
<polygon fill="black" stroke="black" points="231.64,-113.3 237.43,-104.43 227.37,-107.75 231.64,-113.3"/>
</g>
<!-- [key1, key3] -->
<g id="node3" class="node">
<title>[key1, key3]</title>
<ellipse fill="none" stroke="black" cx="55.9" cy="-18" rx="55.79" ry="18"/>
<text text-anchor="middle" x="55.9" y="-14.3" font-family="Times,serif" font-size="14.00">[key1, key3]</text>
</g>
<!-- key1&#45;&gt;[key1, key3] -->
<g id="edge2" class="edge">
<title>key1&#45;&gt;[key1, key3]</title>
<path fill="none" stroke="black" d="M68.78,-72.05C66.89,-64.26 64.59,-54.82 62.47,-46.08"/>
<polygon fill="black" stroke="black" points="65.85,-45.17 60.09,-36.28 59.05,-46.82 65.85,-45.17"/>
</g>
<!-- [key3] -->
<g id="node5" class="node">
<title>[key3]</title>
<ellipse fill="none" stroke="black" cx="163.9" cy="-18" rx="33.6" ry="18"/>
<text text-anchor="middle" x="163.9" y="-14.3" font-family="Times,serif" font-size="14.00">[key3]</text>
</g>
<!-- key2&#45;&gt;[key3] -->
<g id="edge4" class="edge">
<title>key2&#45;&gt;[key3]</title>
<path fill="none" stroke="black" d="M163.9,-71.7C163.9,-63.98 163.9,-54.71 163.9,-46.11"/>
<polygon fill="black" stroke="black" points="167.4,-46.1 163.9,-36.1 160.4,-46.1 167.4,-46.1"/>
</g>
<!-- [key1, key2] -->
<g id="node7" class="node">
<title>[key1, key2]</title>
<ellipse fill="none" stroke="black" cx="271.9" cy="-18" rx="55.79" ry="18"/>
<text text-anchor="middle" x="271.9" y="-14.3" font-family="Times,serif" font-size="14.00">[key1, key2]</text>
</g>
<!-- key3&#45;&gt;[key1, key2] -->
<g id="edge6" class="edge">
<title>key3&#45;&gt;[key1, key2]</title>
<path fill="none" stroke="black" d="M259.01,-72.05C260.9,-64.26 263.2,-54.82 265.32,-46.08"/>
<polygon fill="black" stroke="black" points="268.74,-46.82 267.7,-36.28 261.94,-45.17 268.74,-46.82"/>
</g>
</g>
</svg>
