<?xml version="1.0" encoding="UTF-8" standalone="no"?>
<!DOCTYPE svg PUBLIC "-//W3C//DTD SVG 1.1//EN"
 "http://www.w3.org/Graphics/SVG/1.1/DTD/svg11.dtd">
<!-- Generated by graphviz version 2.42.3 (20191010.1750)
 -->
<!-- Title: output Pages: 1 -->
<svg width="330pt" height="188pt"
 viewBox="0.00 0.00 329.60 188.00" xmlns="http://www.w3.org/2000/svg" xmlns:xlink="http://www.w3.org/1999/xlink">
<g id="graph0" class="graph" transform="scale(1 1) rotate(0) translate(4 184)">
<title>output</title>
<polygon fill="white" stroke="transparent" points="-4,4 -4,-184 325.6,-184 325.6,4 -4,4"/>
<!-- linked -->
<g id="node1" class="node">
<title>linked</title>
<ellipse fill="none" stroke="black" cx="160.8" cy="-162" rx="32.42" ry="18"/>
<text text-anchor="middle" x="160.8" y="-157.8" font-family="Times,serif" font-size="14.00">linked</text>
</g>
<!-- key1 -->
<g id="node2" class="node">
<title>key1</title>
<ellipse fill="none" stroke="black" cx="71.8" cy="-90" rx="27.1" ry="18"/>
<text text-anchor="middle" x="71.8" y="-85.8" font-family="Times,serif" font-size="14.00">key1</text>
</g>
<!-- linked&#45;&gt;key1 -->
<g id="edge1" class="edge">
<title>linked&#45;&gt;key1</title>
<path fill="none" stroke="black" d="M142.79,-146.83C129.63,-136.48 111.6,-122.31 97.01,-110.83"/>
<polygon fill="black" stroke="black" points="98.9,-107.86 88.88,-104.43 94.57,-113.37 98.9,-107.86"/>
</g>
<!-- key2 -->
<g id="node4" class="node">
<title>key2</title>
<ellipse fill="none" stroke="black" cx="160.8" cy="-90" rx="27.1" ry="18"/>
<text text-anchor="middle" x="160.8" y="-85.8" font-family="Times,serif" font-size="14.00">key2</text>
</g>
<!-- linked&#45;&gt;key2 -->
<g id="edge3" class="edge">
<title>linked&#45;&gt;key2</title>
<path fill="none" stroke="black" d="M160.8,-143.7C160.8,-135.98 160.8,-126.71 160.8,-118.11"/>
<polygon fill="black" stroke="black" points="164.3,-118.1 160.8,-108.1 157.3,-118.1 164.3,-118.1"/>
</g>
<!-- key3 -->
<g id="node6" class="node">
<title>key3</title>
<ellipse fill="none" stroke="black" cx="249.8" cy="-90" rx="27.1" ry="18"/>
<text text-anchor="middle" x="249.8" y="-85.8" font-family="Times,serif" font-size="14.00">key3</text>
</g>
<!-- linked&#45;&gt;key3 -->
<g id="edge5" class="edge">
<title>linked&#45;&gt;key3</title>
<path fill="none" stroke="black" d="M178.81,-146.83C191.97,-136.48 210,-122.31 224.59,-110.83"/>
<polygon fill="black" stroke="black" points="227.02,-113.37 232.72,-104.43 222.7,-107.86 227.02,-113.37"/>
</g>
<!-- [key1, key3] -->
<g id="node3" class="node">
<title>[key1, key3]</title>
<ellipse fill="none" stroke="black" cx="54.8" cy="-18" rx="54.6" ry="18"/>
<text text-anchor="middle" x="54.8" y="-13.8" font-family="Times,serif" font-size="14.00">[key1, key3]</text>
</g>
<!-- key1&#45;&gt;[key1, key3] -->
<g id="edge2" class="edge">
<title>key1&#45;&gt;[key1, key3]</title>
<path fill="none" stroke="black" d="M67.68,-72.05C65.79,-64.26 63.5,-54.82 61.38,-46.08"/>
<polygon fill="black" stroke="black" points="64.76,-45.17 58.99,-36.28 57.95,-46.82 64.76,-45.17"/>
</g>
<!-- [key3] -->
<g id="node5" class="node">
<title>[key3]</title>
<ellipse fill="none" stroke="black" cx="160.8" cy="-18" rx="33.38" ry="18"/>
<text text-anchor="middle" x="160.8" y="-13.8" font-family="Times,serif" font-size="14.00">[key3]</text>
</g>
<!-- key2&#45;&gt;[key3] -->
<g id="edge4" class="edge">
<title>key2&#45;&gt;[key3]</title>
<path fill="none" stroke="black" d="M160.8,-71.7C160.8,-63.98 160.8,-54.71 160.8,-46.11"/>
<polygon fill="black" stroke="black" points="164.3,-46.1 160.8,-36.1 157.3,-46.1 164.3,-46.1"/>
</g>
<!-- [key1, key2] -->
<g id="node7" class="node">
<title>[key1, key2]</title>
<ellipse fill="none" stroke="black" cx="266.8" cy="-18" rx="54.6" ry="18"/>
<text text-anchor="middle" x="266.8" y="-13.8" font-family="Times,serif" font-size="14.00">[key1, key2]</text>
</g>
<!-- key3&#45;&gt;[key1, key2] -->
<g id="edge6" class="edge">
<title>key3&#45;&gt;[key1, key2]</title>
<path fill="none" stroke="black" d="M253.91,-72.05C255.81,-64.26 258.1,-54.82 260.22,-46.08"/>
<polygon fill="black" stroke="black" points="263.64,-46.82 262.6,-36.28 256.84,-45.17 263.64,-46.82"/>
</g>
</g>
</svg>
