<?xml version="1.0" encoding="UTF-8" standalone="no"?>
<!DOCTYPE svg PUBLIC "-//W3C//DTD SVG 1.1//EN"
 "http://www.w3.org/Graphics/SVG/1.1/DTD/svg11.dtd">
<!-- Generated by graphviz version 2.44.1 (20200629.0846)
 -->
<!-- Title: input Pages: 1 -->
<svg width="278pt" height="188pt"
 viewBox="0.00 0.00 277.99 188.00" xmlns="http://www.w3.org/2000/svg" xmlns:xlink="http://www.w3.org/1999/xlink">
<g id="graph0" class="graph" transform="scale(1 1) rotate(0) translate(4 184)">
<title>input</title>
<polygon fill="white" stroke="transparent" points="-4,4 -4,-184 273.99,-184 273.99,4 -4,4"/>
<!-- id_map -->
<g id="node1" class="node">
<title>id_map</title>
<ellipse fill="none" stroke="black" cx="135" cy="-162" rx="37.89" ry="18"/>
<text text-anchor="middle" x="135" y="-158.3" font-family="Times,serif" font-size="14.00">id_map</text>
</g>
<!-- key1 -->
<g id="node2" class="node">
<title>key1</title>
<ellipse fill="none" stroke="black" cx="50" cy="-90" rx="27.9" ry="18"/>
<text text-anchor="middle" x="50" y="-86.3" font-family="Times,serif" font-size="14.00">key1</text>
</g>
<!-- id_map&#45;&gt;key1 -->
<g id="edge1" class="edge">
<title>id_map&#45;&gt;key1</title>
<path fill="none" stroke="black" d="M116.97,-146.15C104.62,-135.98 88.09,-122.37 74.54,-111.21"/>
<polygon fill="black" stroke="black" points="76.5,-108.29 66.56,-104.64 72.05,-113.7 76.5,-108.29"/>
</g>
<!-- key2 -->
<g id="node4" class="node">
<title>key2</title>
<ellipse fill="none" stroke="black" cx="135" cy="-90" rx="27.9" ry="18"/>
<text text-anchor="middle" x="135" y="-86.3" font-family="Times,serif" font-size="14.00">key2</text>
</g>
<!-- id_map&#45;&gt;key2 -->
<g id="edge3" class="edge">
<title>id_map&#45;&gt;key2</title>
<path fill="none" stroke="black" d="M135,-143.7C135,-135.98 135,-126.71 135,-118.11"/>
<polygon fill="black" stroke="black" points="138.5,-118.1 135,-108.1 131.5,-118.1 138.5,-118.1"/>
</g>
<!-- key3 -->
<g id="node6" class="node">
<title>key3</title>
<ellipse fill="none" stroke="black" cx="220" cy="-90" rx="27.9" ry="18"/>
<text text-anchor="middle" x="220" y="-86.3" font-family="Times,serif" font-size="14.00">key3</text>
</g>
<!-- id_map&#45;&gt;key3 -->
<g id="edge5" class="edge">
<title>id_map&#45;&gt;key3</title>
<path fill="none" stroke="black" d="M153.02,-146.15C165.37,-135.98 181.9,-122.37 195.45,-111.21"/>
<polygon fill="black" stroke="black" points="197.94,-113.7 203.44,-104.64 193.49,-108.29 197.94,-113.7"/>
</g>
<!-- [v1, v2] -->
<g id="node3" class="node">
<title>[v1, v2]</title>
<ellipse fill="none" stroke="black" cx="39" cy="-18" rx="38.99" ry="18"/>
<text text-anchor="middle" x="39" y="-14.3" font-family="Times,serif" font-size="14.00">[v1, v2]</text>
</g>
<!-- key1&#45;&gt;[v1, v2] -->
<g id="edge2" class="edge">
<title>key1&#45;&gt;[v1, v2]</title>
<path fill="none" stroke="black" d="M47.33,-72.05C46.12,-64.35 44.66,-55.03 43.3,-46.36"/>
<polygon fill="black" stroke="black" points="46.72,-45.61 41.71,-36.28 39.81,-46.7 46.72,-45.61"/>
</g>
<!-- [v3, v4] -->
<g id="node5" class="node">
<title>[v3, v4]</title>
<ellipse fill="none" stroke="black" cx="135" cy="-18" rx="38.99" ry="18"/>
<text text-anchor="middle" x="135" y="-14.3" font-family="Times,serif" font-size="14.00">[v3, v4]</text>
</g>
<!-- key2&#45;&gt;[v3, v4] -->
<g id="edge4" class="edge">
<title>key2&#45;&gt;[v3, v4]</title>
<path fill="none" stroke="black" d="M135,-71.7C135,-63.98 135,-54.71 135,-46.11"/>
<polygon fill="black" stroke="black" points="138.5,-46.1 135,-36.1 131.5,-46.1 138.5,-46.1"/>
</g>
<!-- [v2, v4] -->
<g id="node7" class="node">
<title>[v2, v4]</title>
<ellipse fill="none" stroke="black" cx="231" cy="-18" rx="38.99" ry="18"/>
<text text-anchor="middle" x="231" y="-14.3" font-family="Times,serif" font-size="14.00">[v2, v4]</text>
</g>
<!-- key3&#45;&gt;[v2, v4] -->
<g id="edge6" class="edge">
<title>key3&#45;&gt;[v2, v4]</title>
<path fill="none" stroke="black" d="M222.66,-72.05C223.87,-64.35 225.34,-55.03 226.7,-46.36"/>
<polygon fill="black" stroke="black" points="230.19,-46.7 228.28,-36.28 223.27,-45.61 230.19,-46.7"/>
</g>
</g>
</svg>
