<?xml version="1.0" encoding="UTF-8" standalone="no"?>
<!DOCTYPE svg PUBLIC "-//W3C//DTD SVG 1.1//EN"
 "http://www.w3.org/Graphics/SVG/1.1/DTD/svg11.dtd">
<!-- Generated by graphviz version 2.49.2 (20211016.1639)
 -->
<!-- Title: keydict Pages: 1 -->
<svg width="137pt" height="188pt"
 viewBox="0.00 0.00 136.69 188.00" xmlns="http://www.w3.org/2000/svg" xmlns:xlink="http://www.w3.org/1999/xlink">
<g id="graph0" class="graph" transform="scale(1 1) rotate(0) translate(4 184)">
<title>keydict</title>
<polygon fill="white" stroke="transparent" points="-4,4 -4,-184 132.69,-184 132.69,4 -4,4"/>
<!-- keydict -->
<g id="node1" class="node">
<title>keydict</title>
<ellipse fill="none" stroke="black" cx="64.34" cy="-162" rx="37.89" ry="18"/>
<text text-anchor="middle" x="64.34" y="-158.3" font-family="Times,serif" font-size="14.00">keydict</text>
</g>
<!-- key1 -->
<g id="node2" class="node">
<title>key1</title>
<ellipse fill="none" stroke="black" cx="64.34" cy="-90" rx="28.7" ry="18"/>
<text text-anchor="middle" x="64.34" y="-86.3" font-family="Times,serif" font-size="14.00">key1</text>
</g>
<!-- keydict&#45;&gt;key1 -->
<g id="edge1" class="edge">
<title>keydict&#45;&gt;key1</title>
<path fill="none" stroke="black" d="M64.34,-143.7C64.34,-135.98 64.34,-126.71 64.34,-118.11"/>
<polygon fill="black" stroke="black" points="67.84,-118.1 64.34,-108.1 60.84,-118.1 67.84,-118.1"/>
</g>
<!-- [v1, v2, .., vN] -->
<g id="node3" class="node">
<title>[v1, v2, .., vN]</title>
<ellipse fill="none" stroke="black" cx="64.34" cy="-18" rx="64.19" ry="18"/>
<text text-anchor="middle" x="64.34" y="-14.3" font-family="Times,serif" font-size="14.00">[v1, v2, .., vN]</text>
</g>
<!-- key1&#45;&gt;[v1, v2, .., vN] -->
<g id="edge2" class="edge">
<title>key1&#45;&gt;[v1, v2, .., vN]</title>
<path fill="none" stroke="black" d="M64.34,-71.7C64.34,-63.98 64.34,-54.71 64.34,-46.11"/>
<polygon fill="black" stroke="black" points="67.84,-46.1 64.34,-36.1 60.84,-46.1 67.84,-46.1"/>
</g>
</g>
</svg>
