<?xml version="1.0" encoding="UTF-8" standalone="no"?>
<!DOCTYPE svg PUBLIC "-//W3C//DTD SVG 1.1//EN"
 "http://www.w3.org/Graphics/SVG/1.1/DTD/svg11.dtd">
<!-- Generated by graphviz version 2.49.2 (20211016.1639)
 -->
<!-- Title: valuedict Pages: 1 -->
<svg width="272pt" height="188pt"
 viewBox="0.00 0.00 271.84 188.00" xmlns="http://www.w3.org/2000/svg" xmlns:xlink="http://www.w3.org/1999/xlink">
<g id="graph0" class="graph" transform="scale(1 1) rotate(0) translate(4 184)">
<title>valuedict</title>
<polygon fill="white" stroke="transparent" points="-4,4 -4,-184 267.84,-184 267.84,4 -4,4"/>
<!-- valuedict -->
<g id="node1" class="node">
<title>valuedict</title>
<ellipse fill="none" stroke="black" cx="134.34" cy="-162" rx="44.39" ry="18"/>
<text text-anchor="middle" x="134.34" y="-158.3" font-family="Times,serif" font-size="14.00">valuedict</text>
</g>
<!-- v1 -->
<g id="node2" class="node">
<title>v1</title>
<ellipse fill="none" stroke="black" cx="98.34" cy="-90" rx="27" ry="18"/>
<text text-anchor="middle" x="98.34" y="-86.3" font-family="Times,serif" font-size="14.00">v1</text>
</g>
<!-- valuedict&#45;&gt;v1 -->
<g id="edge1" class="edge">
<title>valuedict&#45;&gt;v1</title>
<path fill="none" stroke="black" d="M125.63,-144.05C121.37,-135.77 116.15,-125.62 111.42,-116.42"/>
<polygon fill="black" stroke="black" points="114.42,-114.6 106.73,-107.31 108.19,-117.8 114.42,-114.6"/>
</g>
<!-- v2 -->
<g id="node4" class="node">
<title>v2</title>
<ellipse fill="none" stroke="black" cx="187.34" cy="-90" rx="27" ry="18"/>
<text text-anchor="middle" x="187.34" y="-86.3" font-family="Times,serif" font-size="14.00">v2</text>
</g>
<!-- valuedict&#45;&gt;v2 -->
<g id="edge3" class="edge">
<title>valuedict&#45;&gt;v2</title>
<path fill="none" stroke="black" d="M146.9,-144.41C153.63,-135.53 162.03,-124.44 169.42,-114.67"/>
<polygon fill="black" stroke="black" points="172.35,-116.6 175.6,-106.51 166.77,-112.37 172.35,-116.6"/>
</g>
<!-- [u1, u2, .., uN] -->
<g id="node3" class="node">
<title>[u1, u2, .., uN]</title>
<ellipse fill="none" stroke="black" cx="64.34" cy="-18" rx="64.19" ry="18"/>
<text text-anchor="middle" x="64.34" y="-14.3" font-family="Times,serif" font-size="14.00">[u1, u2, .., uN]</text>
</g>
<!-- v1&#45;&gt;[u1, u2, .., uN] -->
<g id="edge2" class="edge">
<title>v1&#45;&gt;[u1, u2, .., uN]</title>
<path fill="none" stroke="black" d="M90.46,-72.76C86.5,-64.61 81.6,-54.53 77.12,-45.31"/>
<polygon fill="black" stroke="black" points="80.18,-43.59 72.66,-36.12 73.88,-46.65 80.18,-43.59"/>
</g>
<!-- [t1, t2, .., tN] -->
<g id="node5" class="node">
<title>[t1, t2, .., tN]</title>
<ellipse fill="none" stroke="black" cx="205.34" cy="-18" rx="58.49" ry="18"/>
<text text-anchor="middle" x="205.34" y="-14.3" font-family="Times,serif" font-size="14.00">[t1, t2, .., tN]</text>
</g>
<!-- v2&#45;&gt;[t1, t2, .., tN] -->
<g id="edge4" class="edge">
<title>v2&#45;&gt;[t1, t2, .., tN]</title>
<path fill="none" stroke="black" d="M191.7,-72.05C193.71,-64.26 196.13,-54.82 198.38,-46.08"/>
<polygon fill="black" stroke="black" points="201.8,-46.83 200.9,-36.28 195.02,-45.09 201.8,-46.83"/>
</g>
</g>
</svg>
